<svg id="Layer_1" data-name="Layer 1" xmlns="http://www.w3.org/2000/svg" viewBox="0 0 579.92 124.92"><defs><style>.cls-1{fill:#fff;}</style></defs><title>pokedex-logo</title><path class="cls-1" d="M1.76,0h38.1C64.09,0,79.59,13.87,79.59,35.87V36c0,22-15.5,36.05-39.73,36.05H6.05v51.46H1.76ZM6.05,4V68.07H39.61c21.83,0,35.7-12.25,35.7-32v-.17C75.31,16.1,61.44,4,39.61,4Z" transform="translate(-1.76)"/><path class="cls-1" d="M89.09,79v-.17c0-28.16,15.84-45.72,39.21-45.72s39.3,17.47,39.3,45.72V79c0,28.26-15.93,45.9-39.3,45.9S89.09,107.19,89.09,79Zm74.31,0v-.17c0-25.77-14.3-41.78-35.1-41.78-21,0-34.93,16.1-34.93,41.78V79c0,25.78,13.87,41.87,34.93,42C149.19,121,163.4,104.8,163.4,79Z" transform="translate(-1.76)"/><path class="cls-1" d="M183.77,0H188V81.76h.25L241.3,34.5h5.91L204.32,72.69l43.06,50.86H241.9L201.15,75.43,188,87.07v36.48h-4.2Z" transform="translate(-1.76)"/><path class="cls-1" d="M248.06,79v-.08c0-28.6,15.67-45.81,38.36-45.81s38.27,17.13,38.27,43.75v2.4H252.34c.35,26.89,14.3,41.7,35.19,41.7,16.61,0,28-8.39,31.51-22.26l.17-.69h4.37l-.17.77c-3.6,16.27-17.13,26.12-36,26.12C263.73,124.92,248.06,107.71,248.06,79Zm4.28-3.59h68.24c-.6-23.29-14.47-38.36-34.16-38.36S252.94,52.14,252.34,75.43Z" transform="translate(-1.76)"/><path class="cls-1" d="M335.47,78.94v-.09c0-27.31,15.5-45.72,37.41-45.72,16.87,0,30.4,10.88,34.51,27.4h.17V0h4.19V123.55h-4.19V98.12h-.43c-4.37,16.09-17.72,26.8-34.33,26.8C350.88,124.92,335.47,106.34,335.47,78.94Zm72.09.17V79c0-24.65-14.3-41.95-34.25-41.95s-33.56,16.87-33.56,41.78v.09c0,25.08,13.61,42,33.65,42S407.56,103.68,407.56,79.11Z" transform="translate(-1.76)"/><path class="cls-1" d="M427.93,79v-.08c0-28.6,15.67-45.81,38.35-45.81s38.28,17.13,38.28,43.75v2.4H432.21c.34,26.89,14.3,41.7,35.19,41.7,16.61,0,28-8.39,31.51-22.26l.17-.69h4.36l-.17.77c-3.59,16.27-17.12,26.12-36,26.12C443.6,124.92,427.93,107.71,427.93,79Zm4.28-3.59h68.24c-.6-23.29-14.47-38.36-34.17-38.36S432.81,52.14,432.21,75.43Z" transform="translate(-1.76)"/><path class="cls-1" d="M543.33,78.17,510.11,34.5h5.31l30.4,40.41H546L576.47,34.5h5.22L548.38,78.08l33.22,45.47h-5.13L545.9,81.76h-.17l-30.57,41.79H510Z" transform="translate(-1.76)"/></svg>